<svg width="839" height="555" viewBox="0 0 839 555" fill="none" xmlns="http://www.w3.org/2000/svg">
<path d="M241.746 4.65083C241.746 2.08224 243.456 0 245.565 0H327.041C329.15 0 330.86 2.08225 330.86 4.65084V550.349C330.86 552.918 329.15 555 327.041 555H245.565C243.456 555 241.746 552.918 241.746 550.349V4.65083Z" fill="#081B4D"/>
<path d="M373.521 4.65083C373.521 2.08224 375.285 0 377.462 0H461.538C463.715 0 465.479 2.08225 465.479 4.65084V550.349C465.479 552.918 463.715 555 461.538 555H377.462C375.285 555 373.521 552.918 373.521 550.349V4.65083Z" fill="#081B4D"/>
<path d="M508.14 4.65083C508.14 2.08224 509.85 0 511.959 0H593.435C595.544 0 597.254 2.08225 597.254 4.65084V550.349C597.254 552.918 595.544 555 593.435 555H511.959C509.85 555 508.14 552.918 508.14 550.349V4.65083Z" fill="#081B4D"/>
<path d="M0 509.363C0 506.842 1.71983 504.799 3.84134 504.799H193.347C195.469 504.799 197.189 506.842 197.189 509.363V550.436C197.189 552.957 195.469 555 193.347 555H3.84134C1.71983 555 0 552.957 0 550.436V509.363Z" fill="#081B4D"/>
<path d="M641.811 4.56373C641.811 2.04325 643.531 0 645.653 0H835.159C837.28 0 839 2.04325 839 4.56373V45.6373C839 48.1578 837.28 50.201 835.159 50.201H645.653C643.531 50.201 641.811 48.1578 641.811 45.6373V4.56373Z" fill="#081B4D"/>
</svg>
